<svg width="25" height="25" viewBox="0 0 25 25" fill="none" xmlns="http://www.w3.org/2000/svg">
<g id="setting-two" clip-path="url(#clip0_41_348)">
<path id="Vector" d="M24.5 0.5H0.5V24.5H24.5V0.5Z" fill="white" fill-opacity="0.01"/>
<path id="Vector_2" d="M9.6419 22.0856C7.96635 21.5868 6.4749 20.6606 5.29393 19.4335C5.7345 18.9113 6 18.2367 6 17.5C6 15.8432 4.65685 14.5 3 14.5C2.89977 14.5 2.8007 14.5049 2.703 14.5145C2.5699 13.8638 2.5 13.1901 2.5 12.5C2.5 11.4547 2.66039 10.4469 2.9579 9.4997C2.97191 9.4999 2.98594 9.5 3 9.5C4.65685 9.5 6 8.15685 6 6.5C6 6.02435 5.8893 5.57455 5.6923 5.175C6.84875 4.09969 8.26025 3.29495 9.82605 2.86151C10.3222 3.83404 11.3333 4.50001 12.5 4.50001C13.6667 4.50001 14.6778 3.83404 15.174 2.86151C16.7398 3.29495 18.1512 4.09969 19.3077 5.175C19.1107 5.57455 19 6.02435 19 6.5C19 8.15685 20.3432 9.5 22 9.5C22.0141 9.5 22.0281 9.4999 22.0421 9.4997C22.3396 10.4469 22.5 11.4547 22.5 12.5C22.5 13.1901 22.4301 13.8638 22.297 14.5145C22.1993 14.5049 22.1002 14.5 22 14.5C20.3432 14.5 19 15.8432 19 17.5C19 18.2367 19.2655 18.9113 19.7061 19.4335C18.5251 20.6606 17.0336 21.5868 15.3581 22.0856C14.9714 20.8759 13.838 20 12.5 20C11.162 20 10.0286 20.8759 9.6419 22.0856Z" stroke="#67676C" stroke-width="2" stroke-linejoin="round"/>
<path id="Vector_3" d="M12.5 16C14.433 16 16 14.433 16 12.5C16 10.567 14.433 9 12.5 9C10.567 9 9 10.567 9 12.5C9 14.433 10.567 16 12.5 16Z" stroke="#67676C" stroke-width="2" stroke-linejoin="round"/>
</g>
<defs>
<clipPath id="clip0_41_348">
<rect width="24" height="24" fill="white" transform="translate(0.5 0.5)"/>
</clipPath>
</defs>
</svg>
